<?xml version="1.0" encoding="UTF-8" standalone="no"?>
<svg
   xmlns:dc="http://purl.org/dc/elements/1.1/"
   xmlns:cc="http://creativecommons.org/ns#"
   xmlns:rdf="http://www.w3.org/1999/02/22-rdf-syntax-ns#"
   xmlns:svg="http://www.w3.org/2000/svg"
   xmlns="http://www.w3.org/2000/svg"
   xmlns:sodipodi="http://sodipodi.sourceforge.net/DTD/sodipodi-0.dtd"
   xmlns:inkscape="http://www.inkscape.org/namespaces/inkscape"
   version="1.0"
   width="300pt"
   height="300pt"
   viewBox="0 0 300 300"
   preserveAspectRatio="xMidYMid meet"
   id="svg2"
   inkscape:version="0.91 r13725"
   sodipodi:docname="iict-logo.svg">
  <defs
     id="defs14" />
  <sodipodi:namedview
     pagecolor="#ffffff"
     bordercolor="#666666"
     borderopacity="1"
     objecttolerance="10"
     gridtolerance="10"
     guidetolerance="10"
     inkscape:pageopacity="0"
     inkscape:pageshadow="2"
     inkscape:window-width="640"
     inkscape:window-height="480"
     id="namedview12"
     showgrid="false"
     inkscape:zoom="0.79466667"
     inkscape:cx="187.5"
     inkscape:cy="199.42114"
     inkscape:window-x="2912"
     inkscape:window-y="328"
     inkscape:window-maximized="0"
     inkscape:current-layer="svg2" />
  <metadata
     id="metadata4">
Created by potrace 1.10, written by Peter Selinger 2001-2011
<rdf:RDF>
  <cc:Work
     rdf:about="">
    <dc:format>image/svg+xml</dc:format>
    <dc:type
       rdf:resource="http://purl.org/dc/dcmitype/StillImage" />
    <dc:title></dc:title>
  </cc:Work>
</rdf:RDF>
</metadata>
  <g
     transform="matrix(0.1,0,0,-0.1,-1.0067114,213.42282)"
     id="g6"
     style="fill:#213655;stroke:none">
    <path
       d="m 1706,1380 -149,-190 -69,93 c -38,50 -73,92 -78,92 -5,0 -72,-70 -150,-155 -78,-85 -145,-159 -150,-163 -4,-5 -21,14 -39,42 -17,28 -34,51 -38,50 -5,0 -83,-84 -174,-187 C 768,859 540,603 352,393 164,183 10,8 10,5 10,2 680,0 1500,0 c 820,0 1490,3 1490,6 0,6 -74,130 -435,724 -125,206 -261,431 -302,500 -42,69 -77,127 -79,129 -2,2 -23,-12 -46,-31 -24,-19 -48,-38 -55,-42 -8,-4 -45,42 -109,139 -54,80 -100,145 -103,145 -4,0 -74,-85 -155,-190 z m 254,20 c 51,-77 97,-140 103,-140 5,0 31,18 57,40 l 47,40 146,-243 c 79,-133 165,-279 190,-324 l 45,-81 -926,-1 c -541,0 -928,-4 -931,-10 -3,-5 -12,-3 -19,5 -7,8 -8,14 -2,14 5,0 10,6 10,13 0,7 50,71 111,142 183,213 236,268 248,261 6,-4 20,-25 31,-47 11,-21 24,-39 29,-39 5,0 75,72 156,160 81,88 151,160 155,160 4,0 38,-41 74,-91 37,-50 71,-89 75,-87 5,2 73,85 151,186 79,100 146,182 150,182 4,0 49,-63 100,-140 z M 1785,625 c 22,-1 46,-2 53,-3 20,-3 16,-147 -5,-172 -28,-32 -52,-25 -73,23 -24,55 -45,74 -93,82 -72,14 -112,-54 -95,-159 16,-103 44,-136 115,-136 48,0 56,6 79,55 20,43 53,57 80,35 21,-18 17,-36 -16,-85 -58,-85 -153,-115 -265,-84 -52,15 -119,82 -134,134 -35,127 31,269 141,303 61,19 73,21 123,14 28,-3 68,-6 90,-7 z m -697,-7 c 17,-17 15,-38 -3,-38 -9,0 -18,-7 -21,-15 -4,-10 -13,-13 -24,-10 -22,7 -36,-11 -15,-19 11,-4 15,-33 17,-143 3,-137 3,-137 28,-143 28,-6 42,-50 17,-50 -8,0 -18,-7 -21,-15 -9,-24 -214,-17 -230,7 -14,23 3,52 33,56 21,3 21,6 19,150 -3,138 -4,147 -23,150 -19,4 -45,28 -45,43 0,4 7,15 16,23 20,20 233,23 252,4 z m 290,0 c 17,-17 15,-38 -3,-38 -8,0 -15,-7 -15,-15 0,-11 -7,-14 -25,-9 -25,6 -33,-4 -15,-22 5,-5 11,-70 12,-144 3,-126 4,-135 23,-139 32,-6 51,-51 21,-51 -8,0 -16,-6 -19,-14 -5,-11 -28,-14 -113,-13 -90,2 -109,5 -118,19 -14,23 3,52 33,56 20,3 21,8 21,147 l 0,143 -30,11 c -23,7 -30,16 -30,35 0,14 8,30 18,35 25,15 225,14 240,-1 z m 960,0 c 7,-7 12,-39 12,-73 0,-49 -4,-66 -20,-80 -17,-15 -24,-16 -45,-7 -14,7 -25,20 -25,31 0,27 -26,51 -56,51 l -24,0 0,-140 c 0,-109 3,-140 13,-140 7,0 22,-6 32,-14 18,-13 18,-17 6,-40 -14,-26 -16,-26 -127,-26 -106,0 -114,1 -125,22 -10,18 -8,24 10,39 12,10 25,19 30,21 5,2 11,66 13,143 l 3,140 -28,3 c -34,4 -57,-13 -57,-43 0,-32 -36,-62 -58,-49 -21,14 -30,138 -11,160 15,19 438,21 457,2 z"
       id="path8"
       inkscape:connector-curvature="0" />
    <path
       d="m 684,698 c -4,-7 -3,-8 4,-4 7,4 12,9 12,12 0,8 -9,4 -16,-8 z"
       id="path10"
       inkscape:connector-curvature="0" />
  </g>
</svg>
