<?xml version="1.0" encoding="UTF-8" standalone="no"?>
<svg
   xmlns:dc="http://purl.org/dc/elements/1.1/"
   xmlns:cc="http://creativecommons.org/ns#"
   xmlns:rdf="http://www.w3.org/1999/02/22-rdf-syntax-ns#"
   xmlns:svg="http://www.w3.org/2000/svg"
   xmlns="http://www.w3.org/2000/svg"
   xmlns:sodipodi="http://sodipodi.sourceforge.net/DTD/sodipodi-0.dtd"
   xmlns:inkscape="http://www.inkscape.org/namespaces/inkscape"
   version="1.0"
   width="300pt"
   height="300pt"
   viewBox="0 0 300 300"
   preserveAspectRatio="xMidYMid meet"
   id="svg2"
   inkscape:version="0.91 r13725"
   sodipodi:docname="ipu-ras-logo.svg">
  <sodipodi:namedview
     pagecolor="#ffffff"
     bordercolor="#666666"
     borderopacity="1"
     objecttolerance="10"
     gridtolerance="10"
     guidetolerance="10"
     inkscape:pageopacity="0"
     inkscape:pageshadow="2"
     inkscape:window-width="1046"
     inkscape:window-height="590"
     id="namedview28"
     showgrid="false"
     fit-margin-top="0"
     fit-margin-left="0"
     fit-margin-right="0"
     fit-margin-bottom="0"
     inkscape:zoom="0.62933333"
     inkscape:cx="154.375"
     inkscape:cy="135.625"
     inkscape:window-x="2658"
     inkscape:window-y="308"
     inkscape:window-maximized="0"
     inkscape:current-layer="svg2" />
  <metadata
     id="metadata4">
Created by potrace 1.10, written by Peter Selinger 2001-2011
<rdf:RDF>
  <cc:Work
     rdf:about="">
    <dc:format>image/svg+xml</dc:format>
    <dc:type
       rdf:resource="http://purl.org/dc/dcmitype/StillImage" />
    <dc:title></dc:title>
  </cc:Work>
</rdf:RDF>
</metadata>
  <defs
     id="defs6">
    <style
       type="text/css"
       id="style8"><![CDATA[
   .fil1 {fill:#6E8878}
   .fil0 {fill:#9C0058}
  ]]></style>
  </defs>
  <g
     transform="matrix(0.12145749,0,0,-0.12145749,-33.262506,331.5225)"
     id="g10">
    <!-- fill="#FFFFFF" stroke="none"> -->
    <path
       class="fil0"
       d="m 1540,2217 c 0,-385 1,-389 63,-444 43,-38 83,-45 222,-41 l 100,3 1,93 c 1,51 4,95 6,98 5,4 176,-167 223,-224 l 27,-32 -121,-126 c -66,-69 -123,-125 -127,-124 -4,0 -8,39 -8,88 l -1,87 -125,3 c -116,2 -129,1 -170,-21 -31,-16 -51,-36 -67,-68 -23,-44 -23,-47 -21,-392 l 3,-347 448,447 447,448 -450,450 -450,450 0,-348 z"
       id="path12"
       inkscape:connector-curvature="0"
       style="fill:#9c0058" />
    <path
       class="fil1"
       d="m 977,2103 -437,-438 440,-440 440,-440 0,344 c 0,379 -1,389 -64,434 -28,20 -45,22 -168,25 l -138,4 0,-91 c 0,-103 -10,-113 -55,-58 -15,17 -70,76 -122,130 l -95,98 23,27 c 13,15 67,71 119,125 52,54 97,102 98,107 2,6 10,10 18,10 11,0 14,-20 14,-100 l 0,-100 126,0 c 146,0 186,14 223,80 21,37 21,47 19,379 l -3,341 -438,-437 z"
       id="path14"
       inkscape:connector-curvature="0"
       style="fill:#6e8878" />
    <path
       class="fil0"
       d="m 2442,1557 -62,-62 47,-48 48,-47 -23,-22 -22,-22 -49,48 -50,49 -61,-63 -61,-64 115,-115 116,-116 62,62 63,63 -48,48 c -26,26 -47,52 -47,57 0,6 10,16 21,23 20,13 26,10 70,-34 l 49,-49 63,63 62,62 -115,115 -115,115 -63,-63 z"
       id="path16"
       inkscape:connector-curvature="0"
       style="fill:#9c0058" />
    <path
       class="fil1"
       d="m 375,1500 -110,-110 61,-61 61,-61 68,36 c 37,20 70,36 72,36 15,0 -5,-32 -44,-72 l -47,-48 54,-55 c 30,-30 58,-55 62,-55 5,0 56,48 115,106 l 106,105 -58,59 c -64,65 -65,65 -152,14 -80,-46 -85,-25 -11,46 l 52,50 -59,60 -60,60 -110,-110 z"
       id="path18"
       inkscape:connector-curvature="0"
       style="fill:#6e8878" />
    <path
       class="fil1"
       d="m 714,1160 -110,-109 58,-59 59,-58 89,90 89,91 28,-28 28,-27 -90,-90 -90,-90 58,-57 57,-58 111,112 112,111 -59,57 c -32,32 -97,95 -144,141 l -85,83 -111,-109 z"
       id="path20"
       inkscape:connector-curvature="0"
       style="fill:#6e8878" />
    <path
       class="fil0"
       d="m 1993,1114 c -35,-31 -63,-61 -63,-68 0,-11 87,-287 105,-335 4,-10 23,2 65,44 54,54 58,61 57,101 -3,59 26,88 88,89 40,0 49,5 100,55 l 56,55 -33,14 c -23,9 -309,102 -313,101 0,0 -28,-25 -62,-56 z m 175,-106 c 18,-18 15,-36 -13,-63 -28,-29 -38,-31 -59,-9 -21,20 -20,26 5,58 22,28 48,33 67,14 z"
       id="path22"
       inkscape:connector-curvature="0"
       style="fill:#9c0058" />
    <path
       class="fil1"
       d="m 1112,877 c -29,-29 -52,-58 -52,-63 0,-6 37,-46 82,-89 l 81,-78 -33,-29 c -19,-15 -44,-28 -56,-28 -24,0 -39,28 -30,58 4,11 -12,34 -50,72 l -55,55 -19,-24 c -11,-13 -20,-31 -20,-40 0,-20 250,-271 270,-271 9,0 62,47 118,103 l 103,104 -56,57 -56,58 -49,-46 c -54,-51 -61,-53 -84,-30 -24,23 -20,34 28,84 l 45,45 -38,40 c -78,83 -70,81 -129,22 z"
       id="path24"
       inkscape:connector-curvature="0"
       style="fill:#6e8878" />
    <path
       class="fil0"
       d="m 1810,917 c -14,-8 -84,-70 -155,-140 l -130,-127 117,-117 118,-118 60,60 c 33,33 60,64 60,69 0,6 -21,32 -47,58 l -47,48 71,72 c 38,40 73,83 77,96 11,33 -11,80 -45,97 -34,18 -47,19 -79,2 z m 18,-119 c 2,-10 -16,-38 -42,-65 l -46,-48 -22,23 -22,22 44,45 c 46,47 82,56 88,23 z"
       id="path26"
       inkscape:connector-curvature="0"
       style="fill:#9c0058" />
  </g>
</svg>
