<?xml version="1.0" encoding="UTF-8" standalone="no"?>
<svg
   xmlns:dc="http://purl.org/dc/elements/1.1/"
   xmlns:cc="http://creativecommons.org/ns#"
   xmlns:rdf="http://www.w3.org/1999/02/22-rdf-syntax-ns#"
   xmlns:svg="http://www.w3.org/2000/svg"
   xmlns="http://www.w3.org/2000/svg"
   xmlns:sodipodi="http://sodipodi.sourceforge.net/DTD/sodipodi-0.dtd"
   xmlns:inkscape="http://www.inkscape.org/namespaces/inkscape"
   version="1.1"
   id="svg10"
   xml:space="preserve"
   width="1122.52"
   height="793.70667"
   viewBox="0 0 1122.52 793.70667"
   sodipodi:docname="logo_RUDN_eng.svg"
   inkscape:version="1.0.2 (e86c870879, 2021-01-15)"><metadata
     id="metadata16"><rdf:RDF><cc:Work
         rdf:about=""><dc:format>image/svg+xml</dc:format><dc:type
           rdf:resource="http://purl.org/dc/dcmitype/StillImage" /><dc:title></dc:title></cc:Work></rdf:RDF></metadata><defs
     id="defs14"><clipPath
       clipPathUnits="userSpaceOnUse"
       id="clipPath26"><path
         d="M 0,595.28 H 841.89 V 0 H 0 Z"
         id="path24" /></clipPath></defs><sodipodi:namedview
     pagecolor="#ffffff"
     bordercolor="#666666"
     borderopacity="1"
     objecttolerance="10"
     gridtolerance="10"
     guidetolerance="10"
     inkscape:pageopacity="0"
     inkscape:pageshadow="2"
     inkscape:window-width="1920"
     inkscape:window-height="1137"
     id="namedview12"
     showgrid="false"
     inkscape:zoom="0.80889426"
     inkscape:cx="561.26001"
     inkscape:cy="396.85333"
     inkscape:window-x="-8"
     inkscape:window-y="-8"
     inkscape:window-maximized="1"
     inkscape:current-layer="g18" /><g
     id="g18"
     inkscape:groupmode="layer"
     inkscape:label="logo_RUDN_eng"
     transform="matrix(1.3333333,0,0,-1.3333333,0,793.70667)"><g
       id="g20"><g
         id="g22"
         clip-path="url(#clipPath26)"><g
           id="g28"
           transform="translate(413.7206,243.9276)"><path
             d="m 0,0 v 34.046 c -0.32,0.213 -0.561,0.349 -0.722,0.404 l -13.331,-1.769 v -3.452 l 5.542,-1.445 V 3.451 c -1.758,-1.07 -3.57,-1.898 -5.434,-2.488 -1.864,-0.588 -3.411,-0.883 -4.636,-0.883 -2.343,0 -3.998,0.629 -4.954,1.886 -0.959,1.259 -1.439,3.174 -1.439,5.743 0,4.442 -0.013,8.847 -0.04,13.208 -0.028,4.364 -0.038,8.74 -0.038,13.129 l -0.73,0.323 -13.323,-1.769 v -3.371 c 0.91,-0.266 1.817,-0.522 2.73,-0.763 0.909,-0.242 1.817,-0.493 2.729,-0.762 V 4.255 c 0,-4.067 0.978,-6.906 2.931,-8.51 1.953,-1.609 4.696,-2.411 8.232,-2.411 1.176,0 2.503,0.081 3.974,0.242 1.472,0.16 2.852,0.4 4.137,0.721 1.872,1.661 3.825,3.456 5.861,5.381 0.053,-0.053 0.106,-0.08 0.161,-0.08 l 1.845,-5.862 0.643,-0.241 12.045,1.606 v 3.454 C 5.112,-1.179 4.069,-0.937 3.053,-0.724 2.034,-0.51 1.018,-0.271 0,0"
             style="fill:#0079c1;fill-opacity:1;fill-rule:nonzero;stroke:none"
             id="path30" /></g><g
           id="g32"
           transform="translate(464.9516,267.3758)"><path
             d="m 0,0 c 0,3.906 -0.937,6.719 -2.819,8.428 -1.877,1.714 -4.619,2.571 -8.216,2.571 -1.236,0 -2.593,-0.078 -4.068,-0.239 -1.479,-0.161 -2.888,-0.402 -4.23,-0.723 l -5.8,-5.46 c -0.055,0 -0.08,0.013 -0.08,0.038 0,0.028 -0.028,0.042 -0.081,0.042 l -1.847,5.862 -0.721,0.322 c -1.875,-0.322 -3.763,-0.618 -5.663,-0.883 -1.9,-0.271 -3.788,-0.563 -5.661,-0.884 V 5.701 l 5.54,-1.448 v -27.862 l -6.103,-2.169 0.161,-3.371 h 20.156 l 0.08,3.532 -5.781,1.688 c -0.055,5.03 -0.08,9.527 -0.08,13.488 V 0.722 c 1.82,1.015 3.587,1.807 5.299,2.37 1.711,0.56 3.32,0.842 4.818,0.842 2.461,0 4.147,-0.603 5.059,-1.805 0.91,-1.206 1.365,-3.092 1.365,-5.663 V -23.69 l -5.781,-2.006 0.081,-3.453 H 5.462 l 0.16,3.532 L 0,-23.929 Z"
             style="fill:#0079c1;fill-opacity:1;fill-rule:nonzero;stroke:none"
             id="path34" /></g><g
           id="g36"
           transform="translate(482.7403,293.7136)"><path
             d="m 0,0 c -1.098,-1.071 -1.648,-2.383 -1.648,-3.934 0,-1.553 0.507,-2.878 1.525,-3.976 1.018,-1.096 2.381,-1.646 4.095,-1.646 1.663,0 3.026,0.55 4.097,1.646 1.07,1.098 1.608,2.423 1.608,3.976 C 9.677,-2.383 9.139,-1.071 8.069,0 6.998,1.071 5.635,1.606 3.972,1.606 2.421,1.606 1.094,1.071 0,0"
             style="fill:#0079c1;fill-opacity:1;fill-rule:nonzero;stroke:none"
             id="path38" /></g><g
           id="g40"
           transform="translate(491.2524,260.8292)"><path
             d="m 0,0 c -0.027,5.756 -0.042,11.552 -0.042,17.386 l -0.722,0.321 -13.249,-2.006 v -3.373 c 0.895,-0.268 1.805,-0.525 2.73,-0.764 0.925,-0.241 1.833,-0.495 2.73,-0.761 v -27.787 l -6.262,-2.327 c 0,-0.589 0.011,-1.139 0.038,-1.647 0.026,-0.51 0.066,-1.058 0.121,-1.646 H 6.223 c 0,0.588 0.011,1.136 0.039,1.646 0.027,0.508 0.042,1.058 0.042,1.647 l -6.183,1.927 C 0.066,-11.55 0.023,-5.754 0,0"
             style="fill:#0079c1;fill-opacity:1;fill-rule:nonzero;stroke:none"
             id="path42" /></g><g
           id="g44"
           transform="translate(538.1309,277.8133)"><path
             d="m 0,0 c -1.42,-0.055 -2.931,-0.106 -4.537,-0.161 -1.608,-0.053 -3.119,-0.108 -4.537,-0.159 -1.42,-0.055 -2.368,-0.082 -2.85,-0.082 V -4.014 L -6.947,-5.62 C -7.108,-5.942 -7.4,-6.691 -7.83,-7.87 c -0.429,-1.176 -0.937,-2.596 -1.523,-4.255 -0.593,-1.659 -1.219,-3.441 -1.89,-5.339 -0.668,-1.902 -1.299,-3.682 -1.885,-5.341 -0.591,-1.659 -1.099,-3.092 -1.526,-4.298 -0.429,-1.202 -0.698,-1.94 -0.804,-2.205 h -0.402 l -7.626,20.315 c -0.593,1.498 -1.086,3.064 -1.488,4.697 -0.402,1.632 -0.656,3.092 -0.764,4.376 l -13.57,-0.562 v -3.613 l 4.175,-1.445 c 0.268,-0.588 0.789,-1.782 1.566,-3.574 0.776,-1.794 1.673,-3.894 2.691,-6.304 1.016,-2.408 2.099,-4.992 3.25,-7.749 1.154,-2.755 2.237,-5.339 3.253,-7.749 1.02,-2.408 1.915,-4.524 2.692,-6.342 0.776,-1.822 1.297,-2.998 1.565,-3.534 l 5.058,1.043 10.521,24.412 c 1.124,2.571 2.273,4.858 3.454,6.866 1.174,2.006 2.619,3.68 4.333,5.02 L 2.85,0.08 C 2.368,0.08 1.418,0.053 0,0"
             style="fill:#0079c1;fill-opacity:1;fill-rule:nonzero;stroke:none"
             id="path46" /></g><g
           id="g48"
           transform="translate(575.6859,272.3943)"><path
             d="m 0,0 c -1.232,1.739 -2.931,3.159 -5.1,4.255 -2.167,1.099 -5.019,1.647 -8.551,1.647 -3.802,0 -6.934,-0.616 -9.395,-1.848 -2.463,-1.231 -4.419,-2.837 -5.864,-4.818 -1.445,-1.981 -2.461,-4.213 -3.049,-6.704 -0.593,-2.49 -0.887,-5.019 -0.887,-7.59 0,-3.159 0.349,-5.98 1.045,-8.471 0.697,-2.49 1.795,-4.604 3.293,-6.344 1.5,-1.737 3.453,-3.064 5.862,-3.974 2.41,-0.91 5.3,-1.367 8.671,-1.367 2.893,0 5.705,0.43 8.435,1.285 2.73,0.857 5.11,1.982 7.144,3.373 l -1.524,4.257 c -2.198,-0.912 -4.297,-1.54 -6.303,-1.887 -2.009,-0.349 -3.627,-0.523 -4.859,-0.523 -2.355,0 -4.325,0.309 -5.904,0.925 -1.578,0.613 -2.863,1.538 -3.851,2.77 -0.993,1.231 -1.701,2.757 -2.129,4.577 -0.429,1.82 -0.643,3.936 -0.643,6.344 l 26.097,1.365 0.724,0.884 C 3.157,-9.863 2.918,-7.83 2.488,-5.743 2.059,-3.654 1.229,-1.739 0,0 m -23.448,-10.32 c 0,1.126 0.131,2.317 0.402,3.574 0.266,1.259 0.734,2.436 1.403,3.534 0.67,1.094 1.578,2.006 2.734,2.73 1.149,0.721 2.634,1.083 4.456,1.083 1.604,0 2.891,-0.281 3.851,-0.842 0.965,-0.561 1.714,-1.285 2.25,-2.169 0.535,-0.883 0.895,-1.873 1.085,-2.971 0.184,-1.096 0.282,-2.18 0.282,-3.253 z"
             style="fill:#0079c1;fill-opacity:1;fill-rule:nonzero;stroke:none"
             id="path50" /></g><g
           id="g52"
           transform="translate(614.3666,279.0191)"><path
             d="m 0,0 c -1.339,0 -2.637,-0.216 -3.894,-0.643 -1.259,-0.43 -2.448,-0.963 -3.574,-1.606 -1.123,-0.642 -2.179,-1.363 -3.17,-2.169 -0.992,-0.802 -1.889,-1.579 -2.691,-2.328 l -0.161,0.08 -1.365,5.621 -0.724,0.402 -11.884,-1.848 v -3.373 l 5.542,-1.445 v -27.862 l -6.346,-2.25 0.161,-3.371 h 20.88 l 0.08,3.371 -6.264,1.845 v 25.939 l 13.171,-0.965 c 0.855,1.071 1.511,2.303 1.966,3.697 0.453,1.39 0.683,2.73 0.683,4.014 0,1.071 -0.241,1.818 -0.721,2.248 C 1.206,-0.216 0.643,0 0,0"
             style="fill:#0079c1;fill-opacity:1;fill-rule:nonzero;stroke:none"
             id="path54" /></g><g
           id="g56"
           transform="translate(647.5934,256.9354)"><path
             d="m 0,0 c -1.045,0.963 -2.302,1.82 -3.775,2.571 -1.473,0.747 -3.172,1.526 -5.1,2.328 -1.551,0.641 -2.903,1.204 -4.054,1.686 -1.152,0.481 -2.102,0.963 -2.851,1.446 -0.749,0.482 -1.299,1.005 -1.646,1.568 -0.349,0.56 -0.521,1.214 -0.521,1.963 0,1.501 0.532,2.624 1.604,3.373 1.071,0.752 2.464,1.126 4.176,1.126 0.751,0 1.754,-0.121 3.011,-0.362 1.259,-0.241 2.503,-0.734 3.735,-1.485 l 2.97,-6.505 3.052,0.322 c 0,1.766 0.015,3.521 0.042,5.26 0.024,1.737 0.038,3.492 0.038,5.261 -2.033,1.068 -4.215,1.805 -6.545,2.205 -2.327,0.404 -4.429,0.605 -6.303,0.605 -2.73,0 -5.033,-0.311 -6.905,-0.925 -1.875,-0.616 -3.386,-1.432 -4.537,-2.448 -1.151,-1.02 -1.996,-2.197 -2.529,-3.536 -0.537,-1.335 -0.804,-2.73 -0.804,-4.175 0,-1.765 0.362,-3.251 1.086,-4.457 0.721,-1.204 1.684,-2.247 2.89,-3.131 1.204,-0.883 2.556,-1.659 4.052,-2.328 1.499,-0.669 3.026,-1.354 4.58,-2.046 1.178,-0.538 2.274,-1.033 3.292,-1.488 1.016,-0.455 1.913,-0.95 2.69,-1.486 0.774,-0.533 1.379,-1.163 1.807,-1.885 0.427,-0.724 0.643,-1.593 0.643,-2.611 0,-1.875 -0.764,-3.225 -2.289,-4.055 -1.524,-0.831 -3.467,-1.244 -5.822,-1.244 -1.07,0 -2.344,0.172 -3.813,0.523 -1.475,0.347 -2.772,0.922 -3.896,1.724 l -3.453,7.149 c -0.43,-0.11 -0.897,-0.201 -1.405,-0.282 -0.51,-0.08 -0.978,-0.176 -1.405,-0.281 l 0.643,-11.323 c 1.553,-0.91 3.532,-1.621 5.942,-2.129 2.408,-0.508 4.899,-0.762 7.468,-0.762 2.943,0 5.501,0.309 7.668,0.923 2.169,0.615 3.947,1.46 5.339,2.53 1.39,1.071 2.423,2.341 3.092,3.816 0.671,1.468 1.003,3.064 1.003,4.776 0,1.767 -0.269,3.265 -0.802,4.496 C 1.833,-2.061 1.043,-0.963 0,0"
             style="fill:#0079c1;fill-opacity:1;fill-rule:nonzero;stroke:none"
             id="path58" /></g><g
           id="g60"
           transform="translate(666.8737,284.1571)"><path
             d="m 0,0 c 1.661,0 3.024,0.55 4.097,1.646 1.07,1.099 1.606,2.423 1.606,3.976 0,1.552 -0.536,2.864 -1.606,3.934 -1.073,1.071 -2.436,1.608 -4.097,1.608 -1.553,0 -2.878,-0.537 -3.972,-1.608 -1.1,-1.07 -1.648,-2.382 -1.648,-3.934 0,-1.553 0.508,-2.877 1.527,-3.976 C -3.077,0.55 -1.714,0 0,0"
             style="fill:#0079c1;fill-opacity:1;fill-rule:nonzero;stroke:none"
             id="path62" /></g><g
           id="g64"
           transform="translate(671.4131,260.8292)"><path
             d="m 0,0 c -0.028,5.756 -0.042,11.552 -0.042,17.386 l -0.722,0.321 -13.249,-2.006 v -3.373 c 0.895,-0.268 1.805,-0.525 2.73,-0.764 0.925,-0.241 1.833,-0.495 2.73,-0.761 v -27.787 l -6.262,-2.327 c 0,-0.589 0.011,-1.139 0.038,-1.647 0.028,-0.51 0.066,-1.058 0.121,-1.646 H 6.223 c 0,0.588 0.013,1.136 0.038,1.646 0.028,0.508 0.043,1.058 0.043,1.647 l -6.183,1.927 C 0.066,-11.55 0.023,-5.754 0,0"
             style="fill:#0079c1;fill-opacity:1;fill-rule:nonzero;stroke:none"
             id="path66" /></g><g
           id="g68"
           transform="translate(708.4644,244.6505)"><path
             d="m 0,0 c -1.714,-0.377 -3.134,-0.671 -4.258,-0.882 -1.123,-0.216 -2.247,-0.324 -3.37,-0.324 -2.142,0 -3.63,0.51 -4.457,1.532 -0.832,1.02 -1.246,2.495 -1.246,4.427 v 23.512 h 11.886 v 4.498 h -11.886 v 10.115 c -0.108,0.108 -0.231,0.203 -0.366,0.282 -0.136,0.082 -0.254,0.175 -0.364,0.281 l -4.537,-1.365 -2.918,-8.511 c -1.075,-0.427 -2.121,-0.816 -3.138,-1.166 -1.018,-0.347 -2.034,-0.734 -3.05,-1.163 v -2.971 h 5.699 V 4.416 c 0,-2.088 0.165,-3.868 0.487,-5.341 0.325,-1.473 0.893,-2.689 1.703,-3.654 0.81,-0.963 1.902,-1.674 3.282,-2.127 1.378,-0.455 3.113,-0.681 5.208,-0.681 4.23,0 8.434,1.003 12.609,3.011 -0.213,0.738 -0.429,1.464 -0.643,2.18 C 0.427,-1.483 0.212,-0.751 0,0"
             style="fill:#0079c1;fill-opacity:1;fill-rule:nonzero;stroke:none"
             id="path70" /></g><g
           id="g72"
           transform="translate(754.2741,276.0485)"><path
             d="M 0,0 C -0.081,0.586 -0.148,1.177 -0.201,1.767 L -14.978,1.284 c 0,-0.588 -0.012,-1.163 -0.038,-1.726 -0.027,-0.563 -0.04,-1.139 -0.04,-1.725 l 4.979,-1.688 c -1.553,-4.391 -3.094,-8.767 -4.619,-13.131 -1.524,-4.361 -3.062,-8.767 -4.615,-13.208 h -0.324 c -1.232,3.8 -2.556,7.562 -3.974,11.285 -1.42,3.718 -2.743,7.505 -3.974,11.359 -0.591,1.714 -1.043,3.373 -1.365,4.979 -0.322,1.608 -0.538,3.053 -0.641,4.338 L -43.16,1.204 V -2.41 l 4.175,-1.445 c 2.248,-5.731 4.482,-11.429 6.704,-17.105 2.222,-5.673 4.457,-11.348 6.706,-17.024 l 2.891,-0.321 -2.009,-5.219 c -0.213,-0.59 -0.495,-1.231 -0.842,-1.927 -0.349,-0.694 -0.762,-1.365 -1.244,-2.006 -0.483,-0.644 -1.058,-1.207 -1.727,-1.689 -0.671,-0.483 -1.432,-0.804 -2.289,-0.963 l -7.068,4.016 c -1.069,-0.482 -1.926,-1.206 -2.567,-2.169 -0.643,-0.964 -0.965,-1.955 -0.965,-2.973 0,-1.549 0.722,-2.767 2.167,-3.652 1.447,-0.882 3.185,-1.325 5.22,-1.325 3.16,0 5.822,1.071 7.993,3.21 2.167,2.144 3.972,4.982 5.417,8.513 2.196,5.14 4.391,10.278 6.585,15.418 2.195,5.142 4.366,10.306 6.505,15.498 1.071,2.571 2.207,4.872 3.413,6.907 1.204,2.032 2.637,3.665 4.296,4.897 C 0.148,-1.179 0.08,-0.59 0,0"
             style="fill:#0079c1;fill-opacity:1;fill-rule:nonzero;stroke:none"
             id="path74" /></g><g
           id="g76"
           transform="translate(480.0137,317.036)"><path
             d="m 0,0 0.154,28.635 7.354,1.782 -0.311,4.799 c 0,0 -3.342,-0.305 -7.345,-0.305 -4.006,0 -14.25,0.305 -14.25,0.305 l -0.385,-4.49 6.733,-2.167 V 3.403 c 0,-2.061 -0.182,-3.998 -0.541,-5.803 -0.36,-1.809 -0.991,-3.366 -1.89,-4.683 -0.899,-1.316 -2.135,-2.348 -3.703,-3.095 -1.568,-0.749 -3.536,-1.122 -5.902,-1.122 -2.624,0 -4.734,0.36 -6.327,1.084 -1.593,0.721 -2.827,1.688 -3.703,2.901 -0.874,1.212 -1.452,2.619 -1.735,4.219 -0.284,1.598 -0.426,3.301 -0.426,5.108 v 26.547 l 7.201,1.779 -0.234,4.723 c 0,0 -1.706,-0.304 -8.382,-0.304 -6.674,0 -16.925,0.304 -16.925,0.304 l -0.389,-4.414 6.966,-2.167 V -1.162 c 0,-3.663 0.696,-6.67 2.089,-9.016 1.394,-2.351 3.148,-4.192 5.264,-5.534 2.114,-1.344 4.423,-2.273 6.926,-2.787 2.504,-0.514 4.863,-0.772 7.083,-0.772 2.527,0 5.134,0.258 7.817,0.772 2.681,0.514 5.119,1.484 7.315,2.903 2.19,1.418 3.985,3.378 5.379,5.883 C -0.775,-7.212 -0.053,-3.974 0,0"
             style="fill:#0079c1;fill-opacity:1;fill-rule:nonzero;stroke:none"
             id="path78" /></g><g
           id="g80"
           transform="translate(504.9496,299.2338)"><path
             d="m 0,0 h 3.638 c 0.463,0 1.288,-0.013 2.475,-0.04 1.187,-0.026 2.438,-0.049 3.756,-0.076 1.314,-0.026 2.552,-0.051 3.712,-0.079 1.162,-0.025 1.898,-0.036 2.207,-0.036 3.561,0 6.657,0.449 9.288,1.355 2.632,0.899 4.875,2.088 6.733,3.559 1.858,1.471 3.379,3.159 4.566,5.07 1.185,1.909 2.102,3.856 2.747,5.843 0.646,1.984 1.096,3.946 1.357,5.88 0.258,1.936 0.385,3.703 0.385,5.303 0,3.2 -0.438,6.372 -1.314,9.52 -0.879,3.147 -2.334,5.972 -4.374,8.475 -2.038,2.504 -4.759,4.529 -8.166,6.073 -3.405,1.551 -7.612,2.326 -12.614,2.326 -0.929,0 -1.846,-0.015 -2.749,-0.04 C 10.745,53.105 9.816,53.067 8.86,53.016 7.906,52.966 6.848,52.925 5.688,52.9 4.526,52.875 3.223,52.862 1.78,52.862 h -2.787 c -0.828,0 -1.664,0.013 -2.514,0.038 -0.853,0.025 -1.754,0.053 -2.711,0.078 -0.954,0.026 -2.101,0.064 -3.443,0.117 l -0.541,-4.721 6.191,-1.858 V 6.268 l -6.888,-2.089 0.464,-4.41 c 1.445,0.049 2.749,0.089 3.908,0.115 1.162,0.027 2.271,0.05 3.327,0.076 C -2.156,-0.013 -1.083,0 0,0 m 7.741,45.663 c 0.565,0.053 1.206,0.091 1.925,0.118 0.72,0.024 1.441,0.036 2.161,0.036 2.26,0 4.405,-0.268 6.439,-0.812 2.029,-0.54 3.815,-1.509 5.356,-2.901 1.545,-1.395 2.778,-3.301 3.703,-5.726 0.927,-2.428 1.388,-5.523 1.388,-9.29 0,-2.63 -0.256,-5.174 -0.772,-7.624 C 27.427,17.013 26.593,14.846 25.435,12.965 24.278,11.08 22.737,9.586 20.81,8.475 18.882,7.366 16.529,6.812 13.755,6.812 12.828,6.812 11.814,6.85 10.707,6.926 9.603,7.004 8.612,7.146 7.741,7.351 Z"
             style="fill:#0079c1;fill-opacity:1;fill-rule:nonzero;stroke:none"
             id="path82" /></g><g
           id="g84"
           transform="translate(549.5129,303.5692)"><path
             d="m 0,0 0.309,-4.569 h 22.524 l 0.308,4.878 -7.66,1.625 -0.465,33.047 0.309,0.08 11.145,-14.706 20.046,-26.083 5.959,1.238 c 0,0.878 0.027,2.514 0.078,4.915 0.051,2.398 0.104,5.172 0.154,8.321 0.051,3.146 0.104,6.486 0.157,10.022 0.049,3.533 0.114,6.89 0.19,10.062 0.079,3.174 0.13,5.946 0.155,8.32 0.027,2.372 0.066,3.997 0.118,4.875 l 7.972,1.856 -0.309,4.8 H 38.699 L 38.39,44.192 45.82,42.18 46.516,13.776 46.207,13.697 36.687,26.316 23.376,43.881 c -0.465,0.62 -0.958,1.342 -1.472,2.169 -0.517,0.823 -1.006,1.754 -1.469,2.785 C 18.937,48.784 16.552,48.721 13.274,48.642 9.996,48.566 6.088,48.577 1.549,48.681 L 1.007,44.192 8.979,41.949 7.973,2.165 Z"
             style="fill:#0079c1;fill-opacity:1;fill-rule:nonzero;stroke:none"
             id="path86" /></g><g
           id="g88"
           transform="translate(374.6141,303.787)"><path
             d="m 0,0 0.233,-4.89 c 0,0 8.257,0.374 12.838,0.374 4.581,0 13.071,-0.374 13.071,-0.374 L 26.377,0 18.723,1.824 v 15.663 c 1.005,-0.258 3.68,-0.85 7.072,-0.861 l 16.144,-24.174 9.672,2.169 1.005,3.326 -16.715,20.567 c 6.055,2.306 11.867,7.072 10.234,17.904 -1.996,13.223 -16.55,12.117 -20.615,12.117 -4.065,0 -14.444,-1.877 -23.533,0.41 L 0.681,43.936 c 0,0 2.413,-1.136 6.368,-2.021 V 1.68 Z m 33.885,32.655 c 0,-5.127 -3.007,-10.442 -15.162,-8.369 v 16.7 c 0.417,0.026 0.83,0.045 1.257,0.085 11.082,1.035 13.905,-3.24 13.905,-8.416"
             style="fill:#0079c1;fill-opacity:1;fill-rule:nonzero;stroke:none"
             id="path90" /></g><g
           id="g92"
           transform="translate(245.8777,273.2834)"><path
             d="m 0,0 c -12.106,1.898 -25.008,2.977 -38.246,3.125 -0.842,0.009 -1.532,-0.677 -1.532,-1.519 v -42.184 c 0,-0.908 0.789,-1.596 1.691,-1.502 17.819,1.798 32.858,17.902 39.308,40.165 C 1.471,-1.045 0.895,-0.142 0,0"
             style="fill:#0079c1;fill-opacity:1;fill-rule:nonzero;stroke:none"
             id="path94" /></g><g
           id="g96"
           transform="translate(224.085,358.0282)"><path
             d="m 0,0 c 12.495,-7.476 22.323,-21.863 26.917,-39.647 0.163,-0.628 0.783,-1.033 1.422,-0.912 17.976,3.35 33.884,8.568 46.06,15.287 0.773,0.427 0.855,1.525 0.146,2.061 -3.614,2.727 -7.632,5.317 -12.038,7.738 -6.297,3.466 -13.19,6.477 -20.537,9.017 v 9.727 c 0,0.055 -0.014,0.111 -0.017,0.165 v 4.192 c 0,5.621 4.571,10.192 10.192,10.192 h 7.975 c 0.04,0 0.08,0.01 0.119,0.01 0.042,0 0.08,-0.01 0.12,-0.01 1.568,0 2.84,1.271 2.84,2.839 v 15.327 c 0,1.568 -1.272,2.84 -2.84,2.84 H 5.29 c -1.57,0 -2.84,-1.272 -2.84,-2.84 V 20.659 c 0,-1.568 1.27,-2.839 2.84,-2.839 0.081,0 0.155,0.019 0.235,0.025 C 5.603,17.839 5.68,17.82 5.76,17.82 h 7.976 c 5.62,0 10.191,-4.571 10.191,-10.192 V 3.295 c 0,-0.009 -0.003,-0.015 -0.003,-0.024 V -1.384 C 16.48,0.273 8.727,1.509 0.749,2.285 -0.557,2.412 -1.128,0.673 0,0 M 36.274,7.628 V 2.349 c 0,-0.057 0.015,-0.11 0.019,-0.165 v -6.806 c -0.629,0.189 -1.253,0.381 -1.885,0.563 V 9.503 c 0.552,5.299 4.172,9.688 9.042,11.385 -4.315,-2.84 -7.176,-7.72 -7.176,-13.26 M 18.543,23.922 H 8.126 v 9.226 h 49.395 v -9.226 h -9.626 c -6.638,0 -12.326,-4.111 -14.675,-9.918 -2.348,5.807 -8.036,9.918 -14.677,9.918 m 3.346,-2.704 C 27.619,19.756 31.892,14.65 32.084,8.519 32.082,8.375 32.063,8.236 32.063,8.092 V -3.403 c -0.817,0.225 -1.634,0.449 -2.461,0.663 v 5.066 c 0,0.01 0.004,0.016 0.004,0.023 v 5.279 c 0,5.769 -3.104,10.812 -7.717,13.59"
             style="fill:#0079c1;fill-opacity:1;fill-rule:nonzero;stroke:none"
             id="path98" /></g><g
           id="g100"
           transform="translate(207.1904,313.2161)"><path
             d="M 0,0 C 14.152,0.138 27.932,1.335 40.768,3.466 34.712,28.116 18.325,46.048 -1.092,47.007 V 1.081 C -1.092,0.482 -0.599,-0.006 0,0"
             style="fill:#0079c1;fill-opacity:1;fill-rule:nonzero;stroke:none"
             id="path102" /></g><g
           id="g104"
           transform="translate(303.9661,330.4221)"><path
             d="m 0,0 c -0.679,0.614 -1.68,0.703 -2.474,0.245 -12.406,-7.124 -28.806,-12.664 -47.398,-16.224 -1.151,-0.222 -1.898,-1.32 -1.691,-2.473 0.942,-5.231 1.452,-10.695 1.452,-16.322 0,-6.191 -0.607,-12.188 -1.737,-17.893 -0.233,-1.166 0.518,-2.292 1.686,-2.514 18.154,-3.449 34.23,-8.788 46.558,-15.646 0.779,-0.434 1.746,-0.347 2.421,0.232 12.193,10.526 18.732,22.856 18.732,35.821 C 17.549,-22.236 11.431,-10.291 0,0"
             style="fill:#0079c1;fill-opacity:1;fill-rule:nonzero;stroke:none"
             id="path106" /></g><g
           id="g108"
           transform="translate(207.5905,279.7009)"><path
             d="m 0,0 c 13.613,-0.15 26.893,-1.274 39.344,-3.259 0.794,-0.127 1.549,0.383 1.712,1.17 1.189,5.727 1.829,11.779 1.829,18.036 0,5.665 -0.534,11.154 -1.511,16.391 -0.153,0.802 -0.917,1.327 -1.723,1.198 C 27.111,31.517 13.723,30.376 0,30.226 -0.827,30.218 -1.494,29.551 -1.494,28.724 V 1.502 C -1.494,0.675 -0.827,0.008 0,0"
             style="fill:#0079c1;fill-opacity:1;fill-rule:nonzero;stroke:none"
             id="path110" /></g><g
           id="g112"
           transform="translate(297.5736,257.3739)"><path
             d="m 0,0 c -12.208,6.562 -28.021,11.649 -45.832,14.912 -0.479,0.089 -0.948,-0.209 -1.075,-0.681 -4.876,-17.695 -14.967,-31.873 -27.676,-38.974 -0.898,-0.502 -0.485,-1.863 0.537,-1.767 6.473,0.586 12.802,1.479 18.947,2.649 -5.743,-8.253 -15.125,-13.225 -25.382,-13.225 h -1.93 c -11.054,0 -20.765,5.829 -26.244,14.567 3.875,-1.962 7.984,-3.232 12.261,-3.657 0.876,-0.087 1.627,0.629 1.627,1.507 v 42.184 c 0,0.844 -0.694,1.528 -1.536,1.519 -5.762,-0.065 -11.456,-0.319 -17.062,-0.73 v 3.301 c 5.622,0.409 11.332,0.658 17.104,0.722 0.826,0.008 1.494,0.677 1.494,1.502 v 27.222 c 0,0.827 -0.668,1.493 -1.494,1.502 -5.772,0.063 -11.482,0.313 -17.104,0.719 v 3.304 c 5.701,-0.415 11.495,-0.671 17.358,-0.733 0.682,-0.006 1.24,0.546 1.24,1.226 v 45.779 c -6.657,-0.332 -12.948,-2.69 -18.598,-6.602 l 0.002,12.036 c 0,5.62 4.573,10.193 10.193,10.193 h 7.976 c 0.029,0 0.059,0.007 0.087,0.009 0.029,-0.002 0.059,-0.009 0.086,-0.009 1.568,0 2.84,1.272 2.84,2.838 v 15.329 c 0,1.568 -1.272,2.838 -2.84,2.838 h -82.18 c -1.568,0 -2.838,-1.27 -2.838,-2.838 v -15.329 c 0,-1.566 1.27,-2.838 2.838,-2.838 0.011,0 0.019,0.002 0.03,0.002 0.01,0 0.021,-0.002 0.032,-0.002 h 7.975 c 5.62,0 10.191,-4.573 10.191,-10.193 v -4.033 c 0,-0.019 -0.004,-0.036 -0.004,-0.055 V 92.64 c -5.754,-2.19 -11.203,-4.674 -16.262,-7.457 -4.273,-2.351 -8.181,-4.856 -11.709,-7.493 -0.882,-0.66 -0.751,-2.008 0.214,-2.537 7.861,-4.281 17.274,-7.936 27.757,-10.89 v -3.409 c -12.527,3.456 -23.609,7.895 -32.478,13.188 -0.006,0.004 -0.008,0.01 -0.015,0.015 -12.165,-10.517 -18.689,-22.831 -18.689,-35.783 0,-13.076 6.647,-25.508 19.045,-36.09 0.482,-0.411 1.168,-0.474 1.722,-0.165 8.501,4.776 18.84,8.813 30.415,12.011 v -3.407 c -9.901,-2.785 -18.844,-6.198 -26.426,-10.177 -1.007,-0.529 -1.104,-1.919 -0.18,-2.583 3.164,-2.273 6.613,-4.444 10.344,-6.497 6.143,-3.377 12.855,-6.322 20.001,-8.824 0.334,-0.116 0.667,-0.099 0.967,0.005 9.726,-24.287 33.483,-41.491 61.199,-41.491 h 1.556 c 25.38,0 48.121,16.07 56.577,39.988 0.024,0.064 0.03,0.129 0.049,0.193 8.619,2.757 16.658,6.141 23.908,10.129 4.029,2.216 7.727,4.569 11.094,7.043 C 0.667,-1.183 0.607,-0.326 0,0 m -119.04,108.282 v -4.067 c 0,-0.006 -0.002,-0.013 -0.002,-0.021 V -6.135 c 0,-20.198 16.433,-36.629 36.631,-36.629 h 1.93 c 13.875,0 26.396,7.69 32.683,20.073 0.068,0.131 0.112,0.269 0.156,0.407 0.466,0.107 0.923,0.224 1.387,0.334 -7.671,-16.049 -23.72,-26.267 -41.721,-26.267 h -0.957 c -25.509,0 -46.266,20.754 -46.266,46.266 v 98.14 7.95 0.084 c 0,0.14 -0.019,0.278 -0.021,0.417 0.224,9.777 8.232,17.665 18.063,17.665 h 6.579 c -5.026,-2.664 -8.462,-7.948 -8.462,-14.023 m -55.323,16.296 v 9.224 h 76.505 v -9.224 h -19.299 c -8.875,0 -16.419,-5.718 -19.199,-13.653 -2.779,7.935 -10.325,13.653 -19.195,13.653 z m 82.847,-177.844 h -1.556 c -33.21,0 -60.228,27.016 -60.228,60.228 v 95.988 c 0,0.017 0.005,0.033 0.005,0.053 v 5.279 c 0,6.075 -3.435,11.359 -8.463,14.023 h 6.207 c 9.829,0 17.836,-7.888 18.058,-17.665 -0.002,-0.139 -0.019,-0.277 -0.019,-0.417 v -8.034 c 0,-0.074 0.028,-0.138 0.043,-0.208 V -1.951 c 0,-26.764 21.772,-48.537 48.536,-48.537 h 0.957 c 19.51,0 36.841,11.434 44.545,29.245 0.557,0.146 1.105,0.296 1.657,0.446 -8.601,-19.576 -28.108,-32.469 -49.742,-32.469"
             style="fill:#0079c1;fill-opacity:1;fill-rule:nonzero;stroke:none"
             id="path114" /></g></g></g></g></svg>
