<?xml version="1.0" encoding="UTF-8" standalone="no"?>
<svg
   xmlns:dc="http://purl.org/dc/elements/1.1/"
   xmlns:cc="http://creativecommons.org/ns#"
   xmlns:rdf="http://www.w3.org/1999/02/22-rdf-syntax-ns#"
   xmlns:svg="http://www.w3.org/2000/svg"
   xmlns="http://www.w3.org/2000/svg"
   xmlns:sodipodi="http://sodipodi.sourceforge.net/DTD/sodipodi-0.dtd"
   xmlns:inkscape="http://www.inkscape.org/namespaces/inkscape"
   version="1.0"
   width="300pt"
   height="300pt"
   viewBox="0 0 300 300"
   preserveAspectRatio="xMidYMid meet"
   id="svg2"
   inkscape:version="0.91 r13725"
   sodipodi:docname="tomsk-logo.svg">
  <defs
     id="defs34" />
  <sodipodi:namedview
     pagecolor="#ffffff"
     bordercolor="#666666"
     borderopacity="1"
     objecttolerance="10"
     gridtolerance="10"
     guidetolerance="10"
     inkscape:pageopacity="0"
     inkscape:pageshadow="2"
     inkscape:window-width="748"
     inkscape:window-height="480"
     id="namedview32"
     showgrid="false"
     fit-margin-top="0"
     fit-margin-left="0"
     fit-margin-right="0"
     fit-margin-bottom="0"
     inkscape:zoom="0.62933333"
     inkscape:cx="438.1145"
     inkscape:cy="189.09192"
     inkscape:window-x="2543"
     inkscape:window-y="283"
     inkscape:window-maximized="0"
     inkscape:current-layer="svg2" />
  <metadata
     id="metadata4">
Created by potrace 1.10, written by Peter Selinger 2001-2011
<rdf:RDF>
  <cc:Work
     rdf:about="">
    <dc:format>image/svg+xml</dc:format>
    <dc:type
       rdf:resource="http://purl.org/dc/dcmitype/StillImage" />
    <dc:title></dc:title>
  </cc:Work>
</rdf:RDF>
</metadata>
  <g
     transform="matrix(0.12060159,0,0,-0.12060159,-32.735456,329.36648)"
     id="g6"
     style="fill:#0072bc;stroke:none">
    <path
       d="m 1511,2712 c 0,-18 -8,-44 -17,-57 -14,-21 -24,-25 -68,-25 -32,0 -76,-9 -112,-24 -48,-20 -60,-29 -62,-50 l -3,-26 -205,0 -204,0 0,24 c 0,20 -8,26 -58,40 -76,21 -236,21 -308,0 l -55,-16 3,-721 4,-722 27,-95 c 89,-306 299,-557 580,-690 298,-142 656,-142 954,0 281,133 491,384 580,690 l 27,95 4,722 3,721 -58,17 c -45,13 -84,16 -173,12 -144,-6 -190,-18 -190,-53 l 0,-24 -202,2 -202,3 -6,23 c -7,33 -105,72 -176,72 -60,0 -66,6 -75,70 -5,38 -7,40 -8,12 z m 937,-939 c -4,-608 -4,-619 -26,-692 -103,-338 -356,-581 -688,-663 -125,-30 -323,-30 -448,0 -332,82 -585,325 -688,663 -22,73 -22,84 -26,692 l -3,617 941,0 941,0 -3,-617 z"
       id="path8"
       inkscape:connector-curvature="0" />
    <path
       d="m 910,1733 c 0,-468 4,-502 66,-630 68,-142 205,-250 367,-288 81,-19 254,-19 336,0 210,50 371,216 416,430 12,55 15,159 15,488 l 0,417 -185,0 -185,0 0,-411 c 0,-284 -4,-424 -12,-450 -15,-52 -73,-117 -122,-140 -24,-11 -64,-19 -96,-19 -32,0 -72,8 -96,19 -49,23 -107,88 -122,140 -8,26 -12,166 -12,450 l 0,411 -185,0 -185,0 0,-417 z"
       id="path10"
       inkscape:connector-curvature="0" />
    <path
       d="m 985,867 c 4,-16 -2,-30 -24,-51 -17,-16 -28,-33 -25,-38 4,-6 21,5 39,22 24,24 38,30 54,25 29,-9 26,6 -7,38 -34,33 -44,34 -37,4 z"
       id="path12"
       inkscape:connector-curvature="0" />
    <path
       d="m 1990,849 c -10,-17 -7,-25 22,-55 38,-39 48,-41 73,-14 20,23 14,50 -15,57 -11,3 -20,12 -20,19 0,22 -48,17 -60,-7 z m 40,-14 c 0,-8 -4,-15 -10,-15 -5,0 -10,7 -10,15 0,8 5,15 10,15 6,0 10,-7 10,-15 z m 40,-29 c 0,-8 -4,-17 -9,-21 -12,-7 -24,12 -16,25 9,15 25,12 25,-4 z"
       id="path14"
       inkscape:connector-curvature="0" />
    <path
       d="m 1911,786 c -21,-16 -28,-27 -21,-31 7,-4 17,-2 23,4 18,18 24,13 36,-34 6,-25 15,-43 20,-40 7,4 -13,112 -23,122 -1,2 -17,-8 -35,-21 z"
       id="path16"
       inkscape:connector-curvature="0" />
    <path
       d="m 1056,769 c -15,-12 -26,-30 -26,-44 0,-24 42,-65 67,-65 19,0 63,45 63,65 0,20 -44,65 -63,65 -8,0 -26,-9 -41,-21 z m 72,-47 c -2,-23 -8,-27 -33,-27 -24,0 -31,5 -33,24 -5,32 23,54 50,40 13,-7 18,-19 16,-37 z"
       id="path18"
       inkscape:connector-curvature="0" />
    <path
       d="m 1806,724 c -20,-19 -20,-28 -1,-44 8,-7 15,-18 14,-24 -4,-35 14,-46 55,-30 20,8 21,53 1,60 -8,4 -12,10 -9,15 7,12 -14,39 -32,39 -7,0 -20,-7 -28,-16 z m 39,-24 c -3,-5 -10,-10 -16,-10 -5,0 -9,5 -9,10 0,6 7,10 16,10 8,0 12,-4 9,-10 z m 25,-39 c 0,-14 -18,-23 -30,-16 -6,4 -8,11 -5,16 8,12 35,12 35,0 z"
       id="path20"
       inkscape:connector-curvature="0" />
    <path
       d="m 1205,708 c -32,-89 -34,-98 -20,-98 7,0 16,14 20,30 8,37 21,39 29,4 7,-25 8,-26 27,-9 25,23 32,15 19,-20 -11,-29 -6,-46 9,-29 5,5 15,30 24,57 17,51 9,61 -29,32 -27,-20 -31,-19 -43,15 -10,31 -28,39 -36,18 z"
       id="path22"
       inkscape:connector-curvature="0" />
    <path
       d="m 1710,680 c -10,-18 -7,-24 12,-21 4,0 10,-15 14,-34 6,-33 20,-53 29,-43 7,7 -27,118 -36,118 -5,0 -13,-9 -19,-20 z"
       id="path24"
       inkscape:connector-curvature="0" />
    <path
       d="m 1383,673 c -20,-8 -15,-51 7,-63 29,-16 25,-33 -6,-26 -19,5 -25,3 -22,-6 3,-7 18,-14 35,-16 44,-4 51,23 16,60 -26,27 -26,28 -5,28 25,0 29,15 6,24 -9,3 -16,6 -17,5 -1,0 -8,-3 -14,-6 z"
       id="path26"
       inkscape:connector-curvature="0" />
    <path
       d="m 1490,610 c 0,-44 4,-60 14,-60 9,0 12,8 8,25 -2,14 0,25 6,25 5,0 17,-11 26,-25 9,-14 23,-25 32,-25 11,0 9,8 -11,34 -16,21 -22,37 -16,41 6,3 16,15 21,26 8,14 7,19 -3,19 -7,0 -20,-11 -27,-25 -7,-14 -17,-25 -22,-25 -4,0 -8,11 -8,25 0,14 -4,25 -10,25 -6,0 -10,-27 -10,-60 z"
       id="path28"
       inkscape:connector-curvature="0" />
    <path
       d="m 1648,622 c -10,-2 -18,-8 -18,-13 0,-13 27,-11 35,2 9,13 4,16 -17,11 z"
       id="path30"
       inkscape:connector-curvature="0" />
  </g>
</svg>
