<?xml version="1.0" standalone="no"?>
<!DOCTYPE svg PUBLIC "-//W3C//DTD SVG 20010904//EN"
 "http://www.w3.org/TR/2001/REC-SVG-20010904/DTD/svg10.dtd">
<svg version="1.0" xmlns="http://www.w3.org/2000/svg"
 width="294.000000pt" height="294.000000pt" viewBox="0 0 294.000000 294.000000"
 preserveAspectRatio="xMidYMid meet">
<metadata>
Created by potrace 1.11, written by Peter Selinger 2001-2013
</metadata>
<g transform="translate(0.000000,294.000000) scale(0.100000,-0.100000)"
fill="#000000" stroke="none">
<path d="M1344 2841 c-3 -3 -19 -6 -37 -7 -41 -2 -147 -27 -228 -55 -324 -111
-607 -394 -719 -719 -12 -36 -25 -72 -27 -80 -3 -8 -7 -22 -8 -30 -1 -8 -5
-30 -9 -48 -16 -68 -18 -90 -21 -229 -3 -137 -4 -144 -32 -190 -72 -117 -82
-197 -33 -243 29 -27 112 -63 160 -69 5 0 17 -18 25 -38 9 -20 45 -80 81 -134
l65 -97 -45 -73 c-47 -76 -55 -102 -33 -116 6 -4 76 -8 153 -9 156 -2 198 -14
207 -62 4 -20 -1 -26 -29 -38 -18 -8 -39 -14 -47 -14 -36 0 -48 -45 -19 -77
41 -47 28 -46 722 -47 590 -1 658 1 691 16 69 31 78 82 19 105 -22 9 -40 19
-40 24 0 26 49 110 74 127 17 12 46 36 64 53 l33 31 69 -41 c38 -23 72 -41 75
-41 16 0 63 41 61 53 -1 7 -21 43 -44 80 -23 36 -42 71 -42 77 0 6 18 39 40
73 41 62 109 193 114 219 2 7 6 20 9 28 10 27 45 164 53 210 10 54 11 299 2
355 -8 55 -43 191 -61 241 -30 81 -109 231 -131 247 -8 5 -8 9 0 15 19 13 23
40 9 59 -11 15 -17 16 -33 6 -17 -10 -27 -3 -84 61 -145 159 -353 286 -563
341 -94 25 -97 26 -145 31 -62 8 -290 11 -296 5z"/>
<path d="M983 365 c-12 -9 -15 -38 -15 -159 0 -81 4 -152 9 -157 16 -16 135
-12 181 6 23 10 42 20 42 24 0 3 7 15 15 26 15 19 16 18 44 -16 39 -47 94 -64
155 -48 25 6 51 17 57 25 10 12 16 11 43 -5 47 -29 95 -34 145 -16 33 11 46
12 52 4 7 -12 81 -15 99 -4 5 3 10 15 10 26 0 27 15 24 28 -6 10 -22 18 -25
67 -25 30 0 56 3 56 8 6 30 5 303 -1 312 -8 12 -95 18 -106 7 -3 -3 -7 -17 -8
-32 -1 -26 -1 -26 -18 -5 -9 11 -18 24 -20 30 -5 14 -73 18 -98 5 -17 -9 -30
-9 -60 1 -48 16 -106 11 -139 -14 -26 -19 -26 -19 -70 4 -67 36 -172 15 -197
-39 -5 -11 -16 -23 -24 -25 -8 -3 -12 -1 -8 3 12 12 -50 63 -85 71 -52 11
-138 11 -154 -1z m712 -203 c-5 -14 -7 -14 -15 -2 -8 12 -14 12 -45 1 -46 -16
-63 -4 -60 44 2 48 17 62 51 46 21 -9 31 -9 48 2 20 14 21 13 24 -30 2 -25 0
-53 -3 -61z m-264 87 c11 0 16 -10 16 -33 0 -25 -7 -36 -29 -49 -17 -9 -36
-17 -43 -17 -15 0 -34 29 -30 45 2 6 6 23 10 39 5 25 9 27 33 22 15 -4 34 -7
43 -7z m-317 -15 c10 -26 7 -51 -7 -63 -11 -9 -14 -2 -13 34 0 46 9 58 20 29z"/>
</g>
</svg>
